<?xml version="1.0" standalone="no"?>
<!DOCTYPE svg PUBLIC "-//W3C//DTD SVG 20010904//EN"
 "http://www.w3.org/TR/2001/REC-SVG-20010904/DTD/svg10.dtd">
<svg version="1.0" xmlns="http://www.w3.org/2000/svg"
 width="1024.000000pt" height="1024.000000pt" viewBox="0 0 1024.000000 1024.000000"
 preserveAspectRatio="xMidYMid meet">
<metadata>
Created by potrace 1.14, written by Peter Selinger 2001-2017
</metadata>
<g transform="translate(0.000000,1024.000000) scale(0.100000,-0.100000)"
fill="#000000" stroke="none">
<path d="M40 10212 c0 -31 266 -433 520 -788 352 -490 671 -905 1054 -1373
133 -161 266 -324 296 -361 30 -37 253 -308 495 -601 242 -294 543 -660 669
-814 126 -154 241 -294 256 -311 15 -17 34 -42 43 -55 l17 -23 17 23 c167 239
801 690 1204 856 287 118 428 145 659 125 418 -35 781 -198 1095 -491 228
-212 507 -742 625 -1184 11 -38 17 -71 15 -74 -3 -2 -5 1 -5 7 0 7 -5 12 -11
12 -7 0 -9 -10 -5 -26 4 -15 3 -23 -2 -20 -11 7 -19 -42 -28 -176 -4 -54 -10
-95 -14 -93 -4 3 -10 -35 -12 -83 -6 -108 -40 -200 -124 -332 -67 -107 -146
-192 -440 -480 -243 -237 -308 -292 -460 -388 -107 -67 -201 -134 -309 -221
-193 -154 -331 -211 -504 -211 -36 0 -84 5 -107 10 -22 5 -97 17 -165 25 -72
9 -141 24 -165 36 -59 28 -146 119 -218 229 -35 52 -115 174 -178 270 -116
176 -177 257 -206 274 -16 9 -10 -5 14 -34 7 -8 40 -64 73 -125 53 -95 61
-116 61 -162 0 -31 4 -53 11 -53 6 0 8 9 4 23 -5 20 -5 20 6 4 8 -13 8 -22 0
-30 -14 -14 -41 9 -41 34 0 11 -4 19 -9 19 -6 0 -21 23 -35 50 -58 115 -165
251 -262 334 -40 34 -132 102 -205 152 -202 136 -275 220 -324 369 -23 69 -28
106 -36 279 -9 196 -28 306 -51 306 -7 0 -9 59 -5 193 7 219 25 321 80 440
l34 74 -31 34 c-17 19 -89 106 -161 194 -71 87 -150 182 -175 210 -25 29 -70
83 -100 122 -30 38 -138 171 -239 294 -102 123 -201 244 -221 269 -21 25 -84
102 -141 171 -57 69 -154 186 -214 260 -61 74 -226 274 -366 444 -554 673
-799 993 -1316 1715 -98 137 -309 454 -358 538 l-45 77 1 -4920 c1 -2706 5
-4882 10 -4835 4 47 19 220 33 385 15 165 33 375 41 468 28 311 146 677 309
960 48 82 291 479 361 587 12 20 152 242 310 495 159 253 310 494 336 535 27
41 60 95 75 120 15 25 42 68 59 95 18 28 88 138 155 245 233 371 505 802 760
1205 60 94 191 301 291 460 233 368 216 345 234 322 16 -22 47 31 -416 -702
-951 -1508 -1724 -2738 -2046 -3260 -133 -214 -200 -359 -276 -590 -81 -247
-83 -259 -147 -990 -33 -374 -60 -692 -60 -707 l0 -28 5084 0 c2797 0 5087 3
5089 8 7 10 -110 1345 -123 1417 -51 273 -189 620 -348 875 -33 52 -169 271
-302 485 -134 215 -296 473 -360 575 -64 102 -201 320 -305 485 -103 165 -202
323 -220 350 -18 28 -133 210 -255 405 -123 195 -287 456 -365 580 -723 1145
-671 1059 -653 1076 13 13 16 12 30 -3 14 -16 367 -573 788 -1243 92 -146 430
-683 752 -1195 1053 -1675 1081 -1723 1178 -2000 101 -292 106 -319 165 -975
l53 -595 1 4960 1 4960 -28 -50 c-109 -196 -478 -724 -858 -1230 -281 -372
-372 -490 -554 -715 -131 -162 -570 -695 -649 -789 -25 -30 -57 -69 -71 -87
-14 -17 -158 -193 -320 -389 -162 -197 -360 -438 -440 -535 -239 -292 -405
-492 -448 -540 -34 -38 -42 -43 -54 -31 -11 12 -11 13 2 6 12 -7 13 -6 3 6
-10 12 1 31 64 110 89 109 1198 1458 1603 1949 387 470 556 683 872 1105 392
524 828 1162 828 1212 0 11 -915 13 -5075 13 -2791 0 -5075 -4 -5075 -8z
m6370 -6317 c0 -9 -112 -115 -122 -115 -5 0 -6 -5 -3 -10 4 -6 3 -9 -2 -8 -5
2 -26 -14 -48 -35 -61 -60 -71 -67 -83 -67 -7 0 -12 -7 -12 -15 0 -8 -4 -15
-9 -15 -5 0 -32 -21 -60 -46 -85 -76 -61 -37 44 73 33 35 112 103 175 153 119
92 120 93 120 85z m-2179 -328 c-10 -9 -11 -8 -5 6 3 10 9 15 12 12 3 -3 0
-11 -7 -18z m1129 -471 c0 -3 -26 -12 -57 -21 -63 -19 -193 -27 -233 -15 -24
6 -23 8 15 18 22 6 49 13 60 15 26 6 215 8 215 3z"/>
<path d="M5080 6835 c-8 -2 -49 -9 -90 -15 -205 -33 -499 -163 -787 -347 -46
-29 -83 -55 -83 -57 0 -5 40 17 214 118 203 117 419 213 586 258 74 20 108 23
265 23 243 -1 302 -16 570 -152 246 -124 456 -263 567 -376 27 -27 74 -84 105
-126 31 -42 60 -77 65 -79 4 -2 8 -9 8 -16 0 -7 10 -21 21 -32 l22 -19 -22 43
c-33 65 -109 180 -167 252 -47 59 -229 241 -280 281 -41 32 -144 100 -144 95
0 -3 -26 8 -57 23 -76 38 -186 65 -358 90 -223 32 -385 45 -435 36z"/>
<path d="M4915 6524 c-296 -43 -590 -192 -809 -409 -42 -42 -76 -80 -76 -84 0
-4 -9 -16 -21 -27 -32 -28 -130 -208 -180 -329 -36 -86 -78 -265 -91 -385 -11
-104 -5 -290 13 -385 33 -180 149 -474 202 -513 9 -7 17 -20 17 -28 0 -8 7
-17 15 -20 8 -4 15 -11 15 -18 1 -6 14 -22 30 -36 17 -13 30 -28 30 -34 0 -9
243 -250 273 -271 75 -51 144 -101 155 -111 6 -7 21 -16 32 -19 11 -3 20 -10
20 -14 0 -4 6 -8 13 -9 40 -5 78 -15 83 -23 3 -5 -3 -6 -13 -3 -15 5 -15 4 -3
-4 8 -6 18 -8 22 -5 5 2 14 0 21 -5 11 -8 165 -48 220 -57 103 -16 206 -25
236 -20 20 3 79 7 131 9 52 2 107 9 121 14 15 6 46 14 70 17 24 4 51 11 60 15
9 5 19 7 22 4 5 -6 130 40 157 57 8 5 27 14 42 20 16 6 25 15 22 20 -3 5 4 9
15 9 12 0 21 5 21 10 0 6 7 10 15 10 14 0 37 16 71 48 8 7 18 11 24 7 6 -3 7
1 4 9 -4 10 -1 16 9 16 8 0 18 7 21 16 3 8 11 12 17 9 6 -4 13 2 16 14 3 12
12 21 19 21 8 0 14 5 14 11 0 5 5 7 12 3 7 -5 9 -2 5 9 -4 11 -2 14 8 10 9 -3
18 4 25 21 5 14 16 26 25 26 8 0 15 5 15 11 0 5 4 8 9 4 5 -3 12 3 16 14 3 10
31 45 63 78 126 131 256 408 307 658 24 114 30 286 15 386 -30 197 -79 368
-137 474 -9 16 -30 55 -46 87 -17 32 -37 66 -46 75 -9 10 -28 36 -43 58 -15
23 -45 59 -65 80 -21 22 -56 61 -78 86 -148 170 -405 309 -690 374 -68 16
-401 29 -470 19z m485 -234 c167 -41 278 -90 419 -184 86 -58 208 -170 274
-251 84 -105 169 -266 207 -394 32 -109 22 -106 -15 5 -129 390 -449 693 -844
798 -120 32 -280 50 -396 43 -61 -3 -77 -2 -50 3 71 15 312 3 405 -20z m-55
-46 c114 -20 219 -54 320 -106 78 -40 157 -89 183 -115 7 -7 17 -13 21 -13 10
0 181 -170 201 -199 8 -13 32 -45 53 -73 20 -27 37 -56 37 -64 0 -8 3 -14 8
-14 9 0 44 -67 82 -160 39 -95 70 -231 77 -340 3 -47 9 -90 14 -96 18 -22 20
-121 5 -215 -95 -584 -597 -1000 -1211 -1003 -532 -2 -990 318 -1170 819 -35
99 -30 105 8 10 57 -142 172 -335 198 -335 6 0 8 -3 5 -8 -8 -13 101 -125 115
-116 7 4 10 3 6 -3 -9 -14 61 -77 148 -135 79 -52 214 -122 221 -115 3 2 -29
21 -71 41 -42 19 -74 40 -70 46 3 5 0 7 -8 5 -7 -3 -27 7 -43 22 -16 15 -33
26 -37 25 -4 -1 -10 5 -13 13 -3 8 -10 13 -14 10 -5 -3 -15 4 -23 15 -7 11
-16 18 -18 16 -2 -2 -10 2 -17 10 -7 8 -10 14 -7 14 4 0 -19 26 -51 58 -31 31
-61 56 -66 54 -5 -1 -7 1 -4 6 3 5 -6 20 -18 33 -13 14 -36 45 -51 70 -16 24
-31 46 -34 49 -8 7 -76 145 -95 192 -8 21 -27 81 -42 135 -26 91 -28 111 -29
288 0 194 5 227 52 380 110 354 429 667 781 766 180 51 386 63 557 33z m982
-916 c-3 -7 -5 -2 -5 12 0 14 2 19 5 13 2 -7 2 -19 0 -25z m21 -103 c0 -25 -2
-24 -9 10 -10 51 -10 92 1 50 4 -16 8 -43 8 -60z m-2410 -450 c0 -16 -2 -15
-8 5 -11 34 -11 60 0 35 5 -11 8 -29 8 -40z"/>
<path d="M4935 6105 c-381 -70 -675 -337 -791 -720 -26 -83 -28 -104 -28 -265
-1 -152 2 -186 22 -260 52 -194 187 -407 329 -522 75 -60 181 -124 190 -114 4
3 1 6 -5 6 -7 0 -12 4 -12 10 0 5 7 7 16 3 12 -4 15 -2 12 8 -3 8 4 25 16 38
21 24 6 20 -25 -6 -14 -11 -25 -6 -85 38 -38 28 -82 63 -97 78 -58 54 -145
169 -185 241 -42 79 -99 227 -89 236 5 6 400 94 421 94 6 0 25 -39 40 -87 31
-98 94 -231 145 -310 37 -56 53 -65 27 -14 -20 39 -20 47 1 30 9 -8 14 -9 11
-4 -64 117 -148 335 -148 387 0 10 18 19 58 27 118 26 229 52 289 68 54 15 60
20 52 35 -6 12 -6 18 0 18 17 0 31 -36 20 -47 -6 -6 -9 -19 -6 -29 4 -15 5
-14 6 4 0 13 6 20 11 17 15 -9 24 23 11 39 -9 11 -9 15 0 18 8 3 9 9 1 23 -5
11 -24 101 -41 200 -18 99 -35 192 -37 206 -6 25 -1 28 123 79 70 29 137 54
148 55 13 1 28 -10 43 -32 25 -36 37 -41 45 -19 4 10 1 13 -9 9 -7 -3 -14 -1
-14 5 0 6 6 12 12 14 9 3 8 12 -5 32 -21 32 -24 26 63 114 25 25 37 42 28 39
-25 -9 -23 10 2 23 14 8 20 8 20 0 0 -8 6 -8 20 0 11 6 20 15 20 20 0 16 -46
11 -68 -7 -21 -19 -49 -43 -94 -81 -18 -15 -32 -20 -41 -15 -35 20 -276 257
-270 266 3 6 39 7 92 3 167 -13 376 -75 376 -112 0 -10 5 -22 10 -26 14 -11
35 -10 35 2 0 5 -7 7 -15 4 -19 -8 -19 3 -1 39 8 15 11 27 6 27 -4 0 -10 -5
-12 -11 -2 -7 -9 -5 -17 5 -12 14 -10 16 10 16 29 1 -66 47 -162 78 -126 42
-329 54 -474 27z m180 -182 c84 -65 185 -164 185 -180 0 -14 -240 -107 -249
-97 -7 8 -52 231 -67 333 l-7 43 29 -18 c16 -10 65 -46 109 -81z m-189 -24
c50 -222 56 -250 50 -264 -4 -12 -30 -15 -136 -15 -71 0 -130 2 -130 4 0 7 30
91 40 111 5 11 21 47 35 80 36 82 98 185 110 181 5 -1 19 -45 31 -97z m-217
-95 c-83 -191 -60 -179 -219 -121 l-95 34 70 68 c74 73 171 140 257 180 29 14
54 20 56 15 2 -5 -29 -84 -69 -176z m-211 -196 l124 -42 -9 -90 c-9 -102 -11
-266 -3 -371 l5 -70 -209 -42 c-115 -23 -213 -40 -217 -38 -14 10 -20 171 -9
259 6 49 24 130 40 180 35 106 116 256 139 256 9 0 72 -19 139 -42z m505 -70
c3 -13 20 -88 37 -168 17 -80 35 -164 41 -187 6 -23 9 -46 5 -51 -3 -5 -31
-14 -63 -20 -118 -23 -259 -50 -296 -56 -33 -6 -38 -4 -47 18 -24 64 -20 346
6 451 7 29 20 32 185 34 124 1 127 0 132 -21z m-368 -1278 c-3 -5 -10 -10 -16
-10 -5 0 -9 5 -9 10 0 6 7 10 16 10 8 0 12 -4 9 -10z"/>
<path d="M5607 5973 c-12 -12 -7 -22 8 -17 8 4 15 10 15 15 0 11 -14 12 -23 2z"/>
<path d="M4755 4370 c-3 -6 1 -7 9 -4 18 7 21 14 7 14 -6 0 -13 -4 -16 -10z"/>
<path d="M4690 4275 c-7 -9 -11 -18 -8 -20 3 -3 11 1 18 10 7 9 11 18 8 20 -3
3 -11 -1 -18 -10z"/>
<path d="M4700 3945 c14 -8 30 -14 35 -14 6 0 -1 6 -15 14 -14 8 -29 14 -35
14 -5 0 1 -6 15 -14z"/>
<path d="M6921 4894 c0 -11 3 -14 6 -6 3 7 2 16 -1 19 -3 4 -6 -2 -5 -13z"/>
<path d="M3537 4411 c8 -31 101 -128 166 -175 74 -51 187 -110 187 -97 0 5
-48 58 -107 118 -76 77 -126 119 -169 141 -72 37 -84 39 -77 13z"/>
</g>
</svg>
