<?xml version="1.0" standalone="no"?>
<!DOCTYPE svg PUBLIC "-//W3C//DTD SVG 20010904//EN"
 "http://www.w3.org/TR/2001/REC-SVG-20010904/DTD/svg10.dtd">
<svg version="1.0" xmlns="http://www.w3.org/2000/svg"
 width="2048.000000pt" height="2048.000000pt" viewBox="0 0 2048.000000 2048.000000"
 preserveAspectRatio="xMidYMid meet">
<metadata>
Created by potrace 1.14, written by Peter Selinger 2001-2017
</metadata>
<g transform="translate(0.000000,2048.000000) scale(0.100000,-0.100000)"
fill="#000000" stroke="none">
<path d="M0 10448 c0 -5517 2 -10029 4 -10027 2 2 7 40 10 84 4 44 8 98 11
120 2 22 7 76 10 120 4 44 8 100 10 125 3 25 7 77 10 115 3 39 7 93 10 120 14
153 17 196 21 250 7 112 13 180 18 225 3 25 9 81 12 125 3 44 7 105 10 135 2
30 6 82 8 115 3 33 7 85 10 115 3 30 8 87 11 125 6 87 13 172 20 250 10 104
14 158 20 245 5 72 18 160 39 270 3 14 15 63 26 110 12 47 23 93 26 103 30
124 61 238 82 297 3 8 6 18 7 23 2 4 4 9 5 12 1 3 4 10 5 15 1 6 3 11 4 13 2
1 4 12 6 23 3 12 10 34 16 50 7 16 13 32 14 37 2 4 4 9 5 12 1 3 3 8 4 13 4
17 29 88 35 97 3 6 6 15 7 22 9 60 218 513 311 676 53 92 274 458 519 859 90
147 164 272 164 278 0 5 4 10 8 10 5 0 18 19 31 43 27 51 44 80 52 87 3 3 21
32 39 65 18 33 36 62 40 65 4 3 15 21 25 40 10 19 21 37 24 40 4 3 24 34 44
70 21 36 58 97 82 135 24 39 60 97 80 130 20 33 56 92 80 130 24 39 54 88 66
110 12 22 25 42 29 45 3 3 22 33 41 68 18 34 37 62 41 62 5 0 8 4 8 10 0 5
194 324 432 707 237 384 440 714 451 733 10 19 24 42 31 50 6 8 16 24 22 35 6
11 188 306 404 655 216 349 483 781 593 960 110 179 210 341 222 360 12 19
217 350 455 735 238 385 443 717 456 738 13 20 35 54 48 75 13 20 78 127 146
237 362 591 397 641 453 663 15 5 27 8 27 5 0 -9 -69 -122 -480 -783 -1534
-2468 -3488 -5624 -4075 -6580 -483 -788 -558 -915 -646 -1093 -167 -340 -304
-730 -414 -1179 l-45 -183 -75 -875 c-42 -481 -95 -1107 -120 -1391 -25 -284
-45 -531 -45 -548 l0 -31 10240 0 10240 0 0 10240 0 10240 -10240 0 -10240 0
0 -10032z m10842 3232 c657 -85 1244 -373 1706 -839 449 -451 944 -1507 1082
-2306 43 -250 43 -465 -1 -625 -22 -82 -107 -270 -121 -270 -5 0 -6 -4 -3 -10
3 -5 1 -10 -4 -10 -6 0 -10 -4 -8 -9 3 -13 -110 -186 -192 -291 -219 -282
-490 -549 -1076 -1065 -137 -121 -308 -276 -380 -344 -179 -171 -263 -241
-384 -323 -336 -225 -671 -314 -1275 -340 -404 -17 -534 5 -708 117 -188 122
-305 283 -571 784 -289 547 -381 655 -886 1046 -212 164 -312 254 -380 340
-133 166 -195 313 -220 512 -29 235 -40 1127 -16 1342 29 262 108 493 232 680
227 343 1099 990 1788 1325 325 158 649 269 865 295 129 16 392 12 552 -9z"/>
<path d="M10275 13574 c-44 -7 -135 -29 -203 -48 -126 -37 -337 -115 -329
-122 2 -3 44 11 94 30 107 41 263 86 405 118 87 19 131 23 283 23 352 -1 644
-68 1065 -244 80 -34 150 -61 155 -61 31 0 -159 102 -281 150 -326 130 -897
204 -1189 154z"/>
<path d="M9700 13390 c-8 -5 -10 -10 -5 -10 6 0 17 5 25 10 8 5 11 10 5 10 -5
0 -17 -5 -25 -10z"/>
<path d="M10285 13063 c-16 -2 -82 -10 -146 -18 -119 -15 -313 -63 -430 -108
-87 -33 -215 -97 -239 -119 -10 -10 -24 -18 -30 -18 -7 0 -27 -15 -45 -34 -18
-19 -36 -32 -39 -29 -3 4 -6 1 -6 -5 0 -7 -8 -12 -17 -12 -9 0 -14 -3 -10 -6
3 -3 -2 -14 -11 -25 -9 -11 -16 -23 -15 -27 1 -4 -4 -13 -10 -21 -10 -12 -9
-13 3 -7 21 12 -56 -60 -126 -117 -56 -46 -214 -195 -214 -202 0 -2 -34 -38
-76 -79 -42 -42 -70 -76 -64 -76 10 0 10 -3 0 -15 -7 -8 -16 -13 -20 -10 -4 3
-20 -13 -35 -35 -15 -22 -32 -40 -38 -40 -6 0 -7 -3 -4 -7 4 -3 0 -14 -9 -24
-8 -9 -16 -23 -18 -31 -1 -7 -13 -28 -26 -47 -14 -18 -24 -38 -22 -43 1 -5 -7
-22 -18 -39 -12 -16 -18 -33 -15 -39 3 -5 2 -10 -4 -10 -6 0 -14 -12 -17 -27
-4 -16 -14 -38 -22 -50 -8 -13 -11 -23 -8 -23 4 0 0 -13 -9 -30 -9 -16 -13
-30 -11 -30 3 0 -1 -15 -9 -34 -8 -18 -11 -36 -8 -40 4 -3 2 -6 -4 -6 -5 0 -9
-10 -8 -22 1 -13 -3 -34 -10 -48 -7 -14 -16 -45 -19 -70 -6 -39 -3 -35 24 35
218 578 679 1037 1251 1249 220 81 409 116 665 123 203 6 328 -4 494 -38 77
-16 102 -18 135 -9 23 6 45 10 50 9 6 -1 22 1 37 5 15 4 33 4 40 0 7 -4 28 -9
48 -10 19 -2 62 -6 95 -11 64 -9 105 -6 105 6 0 23 -160 104 -311 157 -231 80
-627 132 -824 107z"/>
<path d="M9785 12256 c-104 -43 -155 -69 -240 -124 -308 -198 -550 -523 -658
-882 -73 -241 -92 -457 -58 -665 29 -179 28 -176 57 -128 20 34 22 45 14 74
-14 45 -13 298 0 406 29 235 96 431 217 635 69 116 68 115 200 74 160 -50 179
-53 193 -26 6 12 10 24 7 26 -2 2 -58 26 -123 52 -86 34 -120 52 -122 66 -5
22 113 145 228 238 83 68 210 152 286 191 35 18 54 36 67 61 9 20 16 36 14 36
-1 0 -38 -15 -82 -34z"/>
<path d="M13431 10064 c0 -11 3 -14 6 -6 3 7 2 16 -1 19 -3 4 -6 -2 -5 -13z"/>
<path d="M13410 9985 c-48 -202 -324 -585 -636 -885 -170 -164 -540 -506 -654
-605 -164 -144 -196 -169 -380 -300 -91 -65 -241 -177 -335 -250 -197 -153
-326 -240 -445 -300 -234 -117 -477 -156 -761 -121 -74 9 -196 21 -270 26
-318 22 -425 116 -760 671 -201 332 -284 458 -295 446 -3 -2 36 -85 85 -183
49 -98 134 -276 189 -394 170 -364 211 -431 341 -561 125 -124 218 -165 395
-175 126 -8 190 3 380 62 150 47 374 80 691 100 182 11 335 62 479 159 98 65
157 125 267 270 260 344 341 428 712 737 485 403 733 693 917 1073 54 111 103
248 98 273 -2 10 -10 -10 -18 -43z"/>
<path d="M1 394 c0 -11 3 -14 6 -6 3 7 2 16 -1 19 -3 4 -6 -2 -5 -13z"/>
</g>
</svg>
