<?xml version="1.0" standalone="no"?>
<!DOCTYPE svg PUBLIC "-//W3C//DTD SVG 20010904//EN"
 "http://www.w3.org/TR/2001/REC-SVG-20010904/DTD/svg10.dtd">
<svg version="1.0" xmlns="http://www.w3.org/2000/svg"
 width="1024.000000pt" height="1024.000000pt" viewBox="0 0 1024.000000 1024.000000"
 preserveAspectRatio="xMidYMid meet">
<metadata>
Created by potrace 1.14, written by Peter Selinger 2001-2017
</metadata>
<g transform="translate(0.000000,1024.000000) scale(0.100000,-0.100000)"
fill="#000000" stroke="none">
<path d="M760 5125 l0 -4355 4355 0 4355 0 0 4355 0 4355 -4355 0 -4355 0 0
-4355z m4760 1432 c180 -48 335 -125 474 -238 125 -100 209 -205 311 -390 109
-196 243 -559 207 -559 -12 0 -21 -51 -24 -128 -1 -30 -6 -56 -10 -58 -4 -3
-8 -31 -8 -62 -1 -149 -80 -272 -338 -526 -209 -206 -275 -263 -377 -327 -38
-24 -125 -85 -193 -136 -224 -170 -288 -185 -572 -140 -147 24 -160 36 -354
330 -74 111 -146 213 -162 227 l-28 25 22 -35 c62 -97 95 -166 98 -201 2 -21
2 -39 0 -39 -1 0 -29 43 -62 97 -75 122 -160 209 -298 302 -207 141 -247 207
-260 436 -10 151 -16 205 -27 205 -5 0 -9 61 -9 143 0 224 40 354 146 475 68
78 222 203 384 311 231 155 415 247 590 297 77 22 99 23 240 20 124 -4 174 -9
250 -29z m515 -2125 c-110 -106 -213 -192 -188 -157 34 48 233 224 253 225 3
0 -26 -31 -65 -68z m-667 -493 c-10 -5 -48 -12 -85 -15 -38 -3 -84 -7 -103 -9
-30 -4 -32 -3 -15 7 29 17 80 26 155 27 48 0 60 -2 48 -10z"/>
<path d="M5058 6531 c-85 -23 -159 -53 -273 -109 -98 -48 -252 -139 -262 -155
-5 -9 50 21 128 69 81 50 248 128 348 161 89 31 124 37 216 41 181 7 290 -24
507 -144 218 -120 323 -205 415 -336 58 -83 74 -98 47 -45 -69 134 -231 317
-351 397 -91 61 -186 92 -365 119 -169 26 -318 26 -410 2z"/>
<path d="M5037 6330 c-129 -23 -270 -81 -386 -158 -408 -271 -534 -862 -275
-1293 85 -142 320 -362 452 -425 214 -101 515 -105 744 -8 101 42 187 105 326
236 117 110 228 343 262 548 26 158 -8 380 -84 544 -46 100 -100 177 -193 276
-121 130 -263 212 -451 261 -87 23 -314 34 -395 19z m241 -147 c-26 -2 -71 -2
-100 0 -29 2 -8 3 47 3 55 0 79 -1 53 -3z m156 -19 c160 -40 347 -163 450
-295 89 -113 178 -319 176 -405 -1 -10 -12 23 -25 74 -84 323 -341 567 -666
631 -24 5 -33 9 -20 10 13 1 51 -6 85 -15z m-26 -34 c251 -60 456 -227 566
-461 52 -109 81 -240 93 -408 5 -80 -13 -173 -53 -272 -114 -281 -388 -482
-705 -520 -361 -42 -718 159 -873 492 -19 41 -37 85 -40 99 l-6 25 12 -25
c109 -231 196 -341 344 -436 65 -42 200 -104 224 -103 8 0 -1 6 -20 13 -50 19
-134 57 -140 65 -3 3 -25 20 -50 36 -160 108 -288 284 -342 472 -32 111 -32
313 0 428 83 294 318 524 607 594 111 27 273 27 383 1z m659 -757 c-3 -10 -5
-4 -5 12 0 17 2 24 5 18 2 -7 2 -21 0 -30z"/>
<path d="M5080 6043 c-57 -9 -159 -47 -220 -80 -91 -51 -225 -188 -272 -278
-61 -118 -82 -204 -82 -330 0 -131 18 -207 74 -320 60 -122 166 -237 267 -289
39 -20 43 -20 43 -2 0 7 10 26 22 42 l22 29 -27 -24 c-25 -23 -29 -23 -54 -10
-16 8 -65 50 -109 95 -65 64 -90 97 -123 165 -51 107 -60 145 -35 152 62 18
267 58 278 54 6 -3 20 -31 30 -63 18 -58 64 -156 94 -202 9 -14 19 -19 24 -14
6 6 -2 33 -21 70 -40 79 -85 213 -74 222 9 7 239 60 262 60 7 0 24 11 37 25
13 14 19 25 15 25 -8 0 -61 257 -61 292 0 14 158 88 187 88 6 0 20 -11 31 -25
16 -20 21 -22 26 -10 3 8 0 27 -7 42 -11 24 -9 29 39 72 47 43 94 109 94 132
0 14 -100 57 -174 74 -56 14 -225 18 -286 8z m265 -48 c91 -19 165 -46 165
-60 0 -14 -115 -115 -132 -115 -7 0 -56 43 -108 95 l-95 95 50 0 c28 0 82 -7
120 -15z m-122 -93 c66 -53 107 -97 107 -112 0 -13 -161 -73 -169 -64 -5 5
-16 50 -24 99 -9 50 -20 105 -23 124 -7 33 -6 33 17 21 13 -7 55 -38 92 -68z
m-150 1 c36 -162 40 -183 33 -190 -3 -4 -45 -9 -93 -11 l-86 -5 6 34 c8 41
104 239 117 239 4 0 15 -30 23 -67z m-103 50 c1 -24 -97 -233 -109 -233 -16 0
-132 40 -144 50 -13 11 113 122 178 157 63 34 75 38 75 26z m-195 -257 l80
-26 -1 -188 -2 -187 -137 -28 c-76 -15 -144 -26 -152 -23 -21 8 -17 167 6 258
18 69 67 183 94 216 6 7 15 11 21 9 6 -2 47 -16 91 -31z m343 -39 c19 -23 74
-289 62 -297 -20 -12 -270 -53 -278 -46 -9 10 -9 261 1 308 l8 37 87 4 c48 1
92 4 98 5 6 1 16 -4 22 -11z"/>
<path d="M4100 4873 c0 -38 132 -154 215 -189 l38 -16 -42 50 c-23 28 -57 64
-77 81 -37 33 -134 86 -134 74z"/>
</g>
</svg>
