<?xml version="1.0" standalone="no"?>
<!DOCTYPE svg PUBLIC "-//W3C//DTD SVG 20010904//EN"
 "http://www.w3.org/TR/2001/REC-SVG-20010904/DTD/svg10.dtd">
<svg version="1.0" xmlns="http://www.w3.org/2000/svg"
 width="2048.000000pt" height="2048.000000pt" viewBox="0 0 2048.000000 2048.000000"
 preserveAspectRatio="xMidYMid meet">
<metadata>
Created by potrace 1.14, written by Peter Selinger 2001-2017
</metadata>
<g transform="translate(0.000000,2048.000000) scale(0.100000,-0.100000)"
fill="#000000" stroke="none">
<path d="M0 10240 l0 -10240 10240 0 10240 0 0 10240 0 10240 -10240 0 -10240
0 0 -10240z m10725 3450 c584 -53 1112 -263 1568 -622 149 -118 366 -342 469
-484 293 -405 587 -1020 749 -1567 43 -146 45 -157 26 -157 -7 0 -13 -10 -14
-22 -1 -11 -8 -25 -14 -29 -7 -4 -13 -16 -15 -26 -1 -10 -4 -38 -8 -63 -3 -25
-8 -78 -11 -119 -5 -68 -10 -109 -20 -166 -2 -11 -4 -56 -6 -100 l-2 -80 -8
65 c-13 110 -32 210 -39 215 -4 2 -1 -33 5 -78 25 -163 28 -296 10 -372 -32
-140 -80 -250 -173 -400 -132 -211 -160 -245 -487 -570 -565 -564 -741 -718
-1005 -882 -174 -109 -218 -140 -480 -343 -287 -222 -408 -292 -578 -337 -152
-40 -317 -43 -500 -9 -79 15 -191 31 -250 36 -304 28 -406 118 -756 662 -219
339 -314 481 -379 560 -61 77 -117 130 -117 113 0 -4 31 -54 69 -113 95 -149
204 -359 191 -367 -11 -7 -4 -67 12 -97 6 -12 5 -18 -3 -18 -8 0 -8 -4 1 -15
10 -12 10 -15 -3 -15 -8 0 -17 8 -21 18 -6 18 -27 54 -37 62 -3 3 -23 37 -44
75 -192 350 -396 560 -805 830 -279 183 -381 289 -467 485 -71 161 -88 266
-98 592 -6 211 -10 256 -25 303 -5 17 -17 59 -25 95 -9 36 -22 70 -30 76 -31
23 -17 489 21 694 40 221 127 432 243 588 262 354 1083 953 1756 1282 359 176
601 256 915 303 53 9 280 7 385 -3z m1784 -4983 c-92 -87 -240 -224 -338 -312
-24 -22 -60 -55 -80 -73 -49 -44 -140 -107 -147 -100 -8 8 208 229 295 302 87
72 353 276 361 276 3 -1 -38 -42 -91 -93z m-3529 -447 c0 -5 -2 -10 -4 -10 -3
0 -8 5 -11 10 -3 6 -1 10 4 10 6 0 11 -4 11 -10z m1828 -787 l54 -6 -34 -15
c-73 -32 -147 -43 -323 -48 l-180 -4 40 19 c43 21 133 39 255 51 106 10 128
11 188 3z"/>
<path d="M10370 13594 c-99 -13 -263 -49 -363 -80 -319 -100 -738 -305 -1063
-520 -116 -78 -171 -124 -106 -90 18 9 77 43 130 75 350 210 592 334 837 430
319 126 486 163 725 163 366 0 585 -59 979 -263 336 -174 498 -273 701 -425
164 -123 274 -233 385 -384 46 -63 105 -143 130 -178 111 -152 29 21 -106 223
-200 300 -493 597 -734 745 -222 137 -423 198 -835 254 -329 44 -577 63 -680
50z"/>
<path d="M10151 13085 c-284 -34 -554 -123 -816 -268 -174 -96 -445 -298 -543
-406 -18 -20 -47 -52 -65 -71 -40 -42 -157 -203 -157 -215 0 -5 -8 -17 -17
-27 -10 -11 -32 -45 -50 -76 -178 -321 -274 -622 -307 -967 -12 -119 -13 -421
-2 -470 2 -12 7 -48 11 -80 12 -113 74 -368 111 -459 13 -33 24 -64 24 -70 0
-11 118 -254 132 -271 5 -5 33 -50 64 -100 30 -49 70 -106 88 -125 18 -19 49
-56 70 -82 53 -68 403 -415 484 -481 313 -254 568 -360 1007 -418 133 -17 193
-20 355 -16 107 3 218 10 245 15 28 6 79 16 115 22 36 7 92 19 125 27 33 8 65
16 70 17 58 11 211 71 311 122 201 102 368 222 549 394 236 225 276 271 389
458 235 388 376 845 376 1216 0 225 -23 400 -79 619 -49 187 -76 260 -162 437
-87 178 -150 278 -257 407 -113 137 -331 371 -352 378 -11 3 -20 10 -20 15 0
14 -247 174 -353 229 -209 108 -440 185 -682 226 -189 32 -489 42 -664 20z
m537 -346 c231 -25 440 -84 649 -184 214 -102 361 -205 532 -370 177 -172 296
-335 407 -558 135 -274 202 -558 205 -877 1 -89 4 -133 9 -115 l8 30 1 -36 c4
-123 -56 -460 -110 -624 -69 -206 -220 -464 -376 -641 -282 -319 -676 -539
-1134 -634 -588 -121 -1204 31 -1679 413 -261 210 -465 485 -603 813 -34 79
-93 276 -101 334 -3 25 9 -9 28 -75 157 -553 553 -1033 1049 -1273 107 -52
287 -123 309 -121 7 0 -5 7 -27 15 -22 8 -60 25 -85 37 -25 12 -47 22 -50 22
-3 1 -25 12 -50 25 -25 13 -65 34 -90 45 -67 32 -258 163 -336 231 -67 58
-184 176 -257 260 -20 22 -69 90 -109 150 -171 256 -290 578 -329 887 -19 156
-7 444 25 591 117 537 411 968 858 1260 184 120 458 232 673 275 205 41 501
46 699 10 254 -45 535 -150 698 -260 31 -22 60 -39 63 -39 16 0 169 -124 254
-205 204 -195 316 -345 432 -579 115 -232 199 -547 199 -750 0 -45 5 -88 10
-96 13 -21 13 151 -1 260 -28 228 -85 421 -184 628 -368 763 -1153 1204 -2005
1128 -47 -4 -81 -4 -77 1 29 28 318 42 495 22z m-508 -29 c0 -5 -8 -10 -17
-10 -15 0 -16 2 -3 10 19 12 20 12 20 0z m1313 -130 c15 -7 27 -17 27 -22 0
-5 5 -6 10 -3 6 3 10 1 10 -4 0 -6 7 -11 15 -11 8 0 15 -5 15 -11 0 -5 5 -7
10 -4 6 3 10 1 10 -4 0 -6 7 -11 15 -11 8 0 15 -4 15 -10 0 -5 7 -10 15 -10 8
0 15 -4 15 -10 0 -5 6 -10 14 -10 8 0 16 -3 18 -7 2 -5 37 -34 80 -66 42 -32
82 -65 90 -75 7 -9 -7 0 -32 21 -54 45 -255 179 -337 224 -55 31 -48 41 10 13z
m467 -355 c47 -47 82 -85 80 -85 -3 0 -43 38 -90 85 -47 47 -82 85 -80 85 3 0
43 -38 90 -85z m-3057 -257 c-81 -103 -134 -186 -205 -323 -37 -71 -68 -127
-68 -122 0 11 87 183 128 252 42 71 185 265 191 260 2 -2 -19 -32 -46 -67z
m-282 -485 c-12 -20 -14 -14 -5 12 4 9 9 14 11 11 3 -2 0 -13 -6 -23z m-144
-1080 c-3 -10 -5 -4 -5 12 0 17 2 24 5 18 2 -7 2 -21 0 -30z m10 -55 c-3 -7
-5 -2 -5 12 0 14 2 19 5 13 2 -7 2 -19 0 -25z"/>
<path d="M10255 12414 c-309 -46 -572 -154 -804 -330 -302 -229 -525 -571
-609 -939 -68 -293 -49 -643 49 -921 35 -101 119 -273 174 -360 50 -79 172
-229 227 -280 92 -86 242 -195 321 -233 44 -22 82 -39 82 -38 1 1 21 38 44 82
40 75 41 78 14 53 -42 -40 -75 -49 -109 -32 -59 31 -182 132 -272 224 -136
138 -213 245 -292 405 -67 134 -139 329 -127 342 4 3 88 23 189 44 101 21 246
52 323 69 219 46 189 61 250 -118 55 -162 170 -404 231 -486 l37 -49 13 26
c13 24 10 34 -42 144 -73 154 -107 239 -149 379 -39 127 -42 159 -20 168 27
10 536 126 608 139 15 2 30 0 33 -5 10 -16 77 111 68 130 -9 22 -3 -10 -70
362 -40 219 -55 326 -49 336 6 8 64 38 130 65 66 27 155 65 198 84 109 49 125
47 179 -19 l45 -55 15 31 c13 29 13 35 -10 79 -14 29 -21 56 -17 68 3 11 57
69 119 128 99 94 120 120 165 204 l51 96 -37 26 c-79 54 -235 114 -403 154
-92 22 -131 26 -315 28 -115 2 -223 1 -240 -1z m495 -119 c147 -28 377 -102
409 -131 25 -22 1 -53 -137 -174 -100 -88 -143 -120 -159 -118 -22 3 -473 423
-473 441 0 15 259 2 360 -18z m-440 -87 c173 -117 445 -369 438 -407 -5 -26
-387 -176 -404 -159 -4 5 -124 593 -124 610 0 14 10 9 90 -44z m-200 -5 c17
-63 120 -549 120 -570 0 -18 -9 -20 -112 -26 -162 -10 -328 -8 -328 2 0 24 77
227 121 321 54 113 168 310 180 310 5 0 13 -17 19 -37z m-200 3 c0 -34 -240
-576 -255 -576 -14 0 -277 89 -338 115 -20 8 -37 19 -37 24 0 12 177 180 247
234 119 91 383 231 383 203z m-475 -619 l210 -72 -1 -30 c0 -16 -8 -89 -17
-160 -21 -164 -22 -387 -1 -545 9 -74 12 -126 7 -131 -12 -12 -661 -140 -688
-137 -30 4 -37 67 -31 288 5 219 25 330 89 495 66 173 175 366 205 364 10 0
112 -33 227 -72z m826 -104 c18 -47 150 -647 147 -668 -4 -26 -41 -38 -218
-70 -80 -14 -206 -38 -282 -52 -158 -31 -160 -30 -179 50 -18 79 -23 377 -9
512 11 108 33 222 46 235 6 5 201 14 387 18 l97 2 11 -27z"/>
<path d="M7850 9653 c0 -5 16 -36 36 -69 75 -125 239 -262 432 -360 157 -80
154 -66 -33 132 -92 97 -153 153 -210 190 -118 76 -225 127 -225 107z"/>
</g>
</svg>
