<svg width="25" height="25" viewBox="0 0 25 25" fill="none" xmlns="http://www.w3.org/2000/svg">
<circle cx="12.5157" cy="12.7942" r="11.2054" fill="#345593" stroke="white" stroke-width="2"/>
<path d="M10.2886 9.13365C10.4885 8.28676 11.2656 7.65527 12.1939 7.65527C13.1221 7.65527 13.8993 8.28676 14.0992 9.13365L14.1826 9.15064C15.4595 9.41053 16.4764 10.3524 16.8092 11.5835C17.0793 12.5829 17.0793 13.6335 16.8092 14.6329C16.4764 15.864 15.4595 16.8059 14.1826 17.0658L13.9387 17.1154C12.7879 17.3497 11.5999 17.3497 10.4491 17.1154L10.2051 17.0658C8.92825 16.8059 7.91141 15.864 7.5786 14.6329C7.30844 13.6335 7.30844 12.5829 7.5786 11.5835C7.91141 10.3524 8.92825 9.41053 10.2051 9.15064L10.2886 9.13365Z" stroke="white" stroke-width="1.7" stroke-linejoin="round"/>
<path d="M10.8555 13.0082C10.8555 12.2691 11.4546 11.6699 12.1938 11.6699C12.9329 11.6699 13.5321 12.2691 13.5321 13.0082C13.5321 13.7474 12.9329 14.3465 12.1938 14.3465C11.4546 14.3465 10.8555 13.7474 10.8555 13.0082Z" stroke="white" stroke-width="1.7"/>
</svg>
