<?xml version="1.0" ?><!DOCTYPE svg  PUBLIC '-//W3C//DTD SVG 1.1//EN'  'http://www.w3.org/Graphics/SVG/1.1/DTD/svg11.dtd'><svg height="512px" id="Layer_1" style="enable-background:new 0 0 512 512;" version="1.1" viewBox="0 0 512 512" width="512px" xml:space="preserve" xmlns="http://www.w3.org/2000/svg" xmlns:xlink="http://www.w3.org/1999/xlink"><g><rect height="512" style="fill:none;" width="512"/><path d="M436.906,440.578C413.023,456.906,356.125,480,264,480s-149.023-23.094-172.906-39.422   c-14.203-9.719-20.609-26.797-18.398-46.5c3.297-29.422,14.102-61.297,38.977-77.609C132.063,303.094,157.5,297,192,283.156   c11.852,28.609,55.328,68.891,72,68.906c16.672-0.016,60.148-40.297,72-68.906c34.5,13.844,59.938,19.938,80.328,33.313   c24.875,16.313,35.68,48.188,38.977,77.609C457.516,413.781,451.109,430.859,436.906,440.578z M233.023,241.266   c-15.219-11.453-31.07-29.328-39.891-52.734c-4.406-11.719-6.07-27.188-6.711-41.938c8.773-32.984,26.828-24.578,41.578-69.484   c24.336,30.344,57.18,15.578,74.797,31.094c16.211,14.281,14.094,37.766,38.055,49.797c-0.961,11.016-2.695,21.813-5.969,30.531   c-8.82,23.406-24.688,41.297-39.906,52.75c-1.336,19,6.203,33.172,41.023,41.875c40.313-13.109,48-35.125,48-35.125   c-20.938-33.359-8.617-65.375-4.906-95.156c5.172-41.484-3.758-76.813-34.297-105.719c-19.461-18.422-50.133-31.766-80.117-31.094   c-22.688,0.516-46.461,4.578-52.68,23.328c-46,12-67.445,56.531-65.461,94.781c2.523,48.563,18.125,72.453-2.031,113.859   c0,0,7.391,21.969,47.492,35.125C226.266,274.422,234.352,260.156,233.023,241.266z" style="fill:#737373;"/></g></svg>