<?xml version="1.0" ?><!DOCTYPE svg  PUBLIC '-//W3C//DTD SVG 1.1//EN'  'http://www.w3.org/Graphics/SVG/1.1/DTD/svg11.dtd'><svg height="512px" id="Layer_1" style="enable-background:new 0 0 512 512;" version="1.1" viewBox="0 0 512 512" width="512px" xml:space="preserve" xmlns="http://www.w3.org/2000/svg" xmlns:xlink="http://www.w3.org/1999/xlink"><g><rect height="512" style="fill:none;" width="512"/><path d="M463.297,394.078c-6.219-39.406-11.547-60.719-34.172-80.734   c-15.891-14.063-47.938-19.328-79.266-34.094C331.109,340.75,271.703,400,264,400s-67.109-59.25-85.859-120.75   c-31.328,14.766-63.375,20.031-79.266,34.094c-22.625,20.016-27.953,41.328-34.172,80.734c-3.094,19.578,4.203,36.781,18.391,46.5   C106.984,456.906,171.875,480,264,480s157.016-23.094,180.906-39.422C459.094,430.859,466.391,413.656,463.297,394.078z" style="fill:#737373;"/><path d="M264,304c15.625-0.016,54.453-10.188,69.078-35c-7.578-7.594-11.172-19.5-12.641-31.641   c7.625-9.344,14.516-20.234,19.656-32.891c2.422-6,4.047-13.031,5.219-20.406c9.438-0.078,18.891-10.531,21.813-24.828   c3.156-15.438-2.5-29.313-12.625-31.047c-1-0.172-2-0.125-3-0.063c1.719-22.391-2.078-48.828-10.984-64.672   C332.813,49.719,303.156,32,264.688,32c-38.5,0-57.734,9.109-63.953,27.859c-23.672,4-27.047,40.344-23.578,68.266   c-1.219-0.156-2.438-0.141-3.656,0.063c-10.125,1.734-15.781,15.609-12.625,31.047c2.938,14.297,12.391,24.766,21.828,24.828   c1.172,7.375,2.797,14.406,5.234,20.406c5.125,12.641,12,23.531,19.641,32.875C206.109,249.5,202.5,261.406,194.922,269   C209.547,293.813,248.375,303.984,264,304z" style="fill:#737373;"/></g></svg>