<svg width="75" height="75" viewBox="0 0 75 75" fill="none" xmlns="http://www.w3.org/2000/svg">
<circle cx="37.5" cy="37.5" r="37.5" fill="#EFEFEF"/>
<path d="M52.955 48.495C52.955 49.035 52.835 49.59 52.58 50.13C52.325 50.67 51.995 51.18 51.56 51.66C50.825 52.47 50.015 53.055 49.1 53.43C48.2 53.805 47.225 54 46.175 54C44.645 54 43.01 53.64 41.285 52.905C39.56 52.17 37.835 51.18 36.125 49.935C34.4 48.675 32.765 47.28 31.205 45.735C29.66 44.175 28.265 42.54 27.02 40.83C25.79 39.12 24.8 37.41 24.08 35.715C23.36 34.005 23 32.37 23 30.81C23 29.79 23.18 28.815 23.54 27.915C23.9 27 24.47 26.16 25.265 25.41C26.225 24.465 27.275 24 28.385 24C28.805 24 29.225 24.09 29.6 24.27C29.99 24.45 30.335 24.72 30.605 25.11L34.085 30.015C34.355 30.39 34.55 30.735 34.685 31.065C34.82 31.38 34.895 31.695 34.895 31.98C34.895 32.34 34.79 32.7 34.58 33.045C34.385 33.39 34.1 33.75 33.74 34.11L32.6 35.295C32.435 35.46 32.36 35.655 32.36 35.895C32.36 36.015 32.375 36.12 32.405 36.24C32.45 36.36 32.495 36.45 32.525 36.54C32.795 37.035 33.26 37.68 33.92 38.46C34.595 39.24 35.315 40.035 36.095 40.83C36.905 41.625 37.685 42.36 38.48 43.035C39.26 43.695 39.905 44.145 40.415 44.415C40.49 44.445 40.58 44.49 40.685 44.535C40.805 44.58 40.925 44.595 41.06 44.595C41.315 44.595 41.51 44.505 41.675 44.34L42.815 43.215C43.19 42.84 43.55 42.555 43.895 42.375C44.24 42.165 44.585 42.06 44.96 42.06C45.245 42.06 45.545 42.12 45.875 42.255C46.205 42.39 46.55 42.585 46.925 42.84L51.89 46.365C52.28 46.635 52.55 46.95 52.715 47.325C52.865 47.7 52.955 48.075 52.955 48.495Z" stroke="#2A2D54" stroke-width="3" stroke-miterlimit="10"/>
<path d="M47.75 34.5C47.75 33.6 47.045 32.22 45.995 31.095C45.035 30.06 43.76 29.25 42.5 29.25" stroke="#2A2D54" stroke-width="3" stroke-linecap="round" stroke-linejoin="round"/>
<path d="M53 34.5C53 28.695 48.305 24 42.5 24" stroke="#2A2D54" stroke-width="3" stroke-linecap="round" stroke-linejoin="round"/>
</svg>
