<svg width="75" height="75" viewBox="0 0 75 75" fill="none" xmlns="http://www.w3.org/2000/svg">
<circle cx="37.5" cy="37.5" r="37.5" fill="#EFEFEF"/>
<path d="M32.75 49.5H32C26 49.5 23 48 23 40.5V33C23 27 26 24 32 24H44C50 24 53 27 53 33V40.5C53 46.5 50 49.5 44 49.5H43.25C42.785 49.5 42.335 49.725 42.05 50.1L39.8 53.1C38.81 54.42 37.19 54.42 36.2 53.1L33.95 50.1C33.71 49.77 33.155 49.5 32.75 49.5Z" stroke="#2A2D54" stroke-width="3" stroke-miterlimit="10" stroke-linecap="round" stroke-linejoin="round"/>
<path d="M43.9948 37.5H44.0081" stroke="#2A2D54" stroke-width="3" stroke-linecap="round" stroke-linejoin="round"/>
<path d="M37.9932 37.5H38.0067" stroke="#2A2D54" stroke-width="3" stroke-linecap="round" stroke-linejoin="round"/>
<path d="M31.9917 37.5H32.0052" stroke="#2A2D54" stroke-width="3" stroke-linecap="round" stroke-linejoin="round"/>
</svg>
